<?xml version="1.0" encoding="utf-8"?>
<!-- Generator: Adobe Illustrator 25.0.0, SVG Export Plug-In . SVG Version: 6.00 Build 0)  -->
<svg version="1.1" id="Layer_1" xmlns="http://www.w3.org/2000/svg" xmlns:xlink="http://www.w3.org/1999/xlink" x="0px" y="0px"
	 viewBox="0 0 159.4 159.4" style="enable-background:new 0 0 159.4 159.4;" xml:space="preserve">
<style type="text/css">
	.st0{fill:none;stroke:#000000;stroke-width:3;stroke-miterlimit:10;}
	.st1{fill:none;stroke:#FFFFFF;stroke-width:3;stroke-miterlimit:10;}
	.st2{fill:none;stroke:#FFFFFF;stroke-width:3;stroke-linecap:round;stroke-miterlimit:10;}
	.st3{fill:#FF6500;stroke:#FFFFFF;stroke-width:3;stroke-linecap:round;stroke-linejoin:round;}
</style>
<g>
	<path class="st0" d="M49.5,87.1L49.5,87.1"/>
	<path class="st1" d="M66.7,70.8c-0.2-5-0.3-7-0.3-9.3c0-1.2,0-2.5,0-4.3c0-7.2,0.1-10.8,2.7-12.7c2.3-1.5,5.2-1.6,7.6-0.2
		c3.3,2.2,3.2,7.6,3.1,12.5c0,0,0,0.1,0,4.6c0,4.1,0,11.8,0.1,26.4c0,2.5,0.1,10.2-0.3,20.4c-0.2,5.5-0.5,8.3-1.5,11.8
		c-1.4,4.8-3.9,9.2-7.2,13c-0.2,0.2-0.3,0.4-0.4,0.5H24.3c-5.7-7.7-12.5-19.6-13.6-34.1c-0.8-11.4,2.5-15.4,3.7-16.7
		c3-3.2,7.3-4.6,11.6-4.9"/>
	<path class="st2" d="M52.1,116.2c0.5-3.5,2.1-6.7,4.5-9.3c3.3-3.5,9.2-6.2,9.2-6.2l0,0"/>
	<path class="st2" d="M39.9,115.8c-0.6-3.8-1.7-7.5-3.4-11c-2.2-4.5-5.3-8.4-9.1-11.7c4.3,0.1,8.5-1.4,11.8-4.2l0.2-0.2
		c2.5-2.2,3.1-5.8,1.5-8.7c-0.7-1.2-1.3-1.4-1.3-1.4"/>
	<path class="st1" d="M66.7,71.6v9.3c0,3.6-2.6,6.6-6.1,7c-0.2,0-0.4,0-0.7,0s-0.4,0-0.7,0c-3.5-0.4-6.2-3.4-6.1-7v-9.3
		c0-1.9,0.7-3.6,2-4.9c2.8-2.6,7.2-2.5,9.8,0.3c0.1,0.1,0.2,0.2,0.3,0.3c0.3,0.3,0.5,0.6,0.7,1l0,0C66.5,69.3,66.8,70.4,66.7,71.6z"
		/>
	<path class="st1" d="M39.6,77.2v-5.6c0-1.9,0.7-3.6,2-4.9c2.8-2.6,7.2-2.5,9.8,0.3c0.1,0.1,0.2,0.2,0.3,0.3c1,1.2,1.5,2.8,1.5,4.3
		v9.3c0,2.6-1.4,5-3.6,6.3l0,0c-0.8,0.4-1.6,0.7-2.5,0.8c-0.2,0-0.4,0-0.7,0s-0.4,0-0.7,0c-0.9-0.1-1.8-0.4-2.6-0.8
		c-0.5-0.3-0.9-0.6-1.2-0.9"/>
	<path class="st1" d="M39.6,71.6v7.1c-0.4-0.2-0.9-0.3-1.3-0.4c-3.9-0.7-7.9-0.8-11.9-0.5c-0.1,0-0.3-6.1-0.3-6.1c0-1.9,0.7-3.7,2-5
		c2.8-2.6,7.2-2.5,9.8,0.3c0.1,0.1,0.2,0.2,0.3,0.3C39.1,68.5,39.6,70,39.6,71.6z"/>
	<path class="st0" d="M49.5,87.1L49.5,87.1"/>
	<path class="st1" d="M66.4,61.5h22.7c0,0,9.5,0.8,9.2,14.5s0,45.5,0,45.5c0.8,5.7,6.1,9.7,11.8,8.8c4.6-0.7,8.2-4.3,8.8-8.8V62.5"
		/>
	<path class="st3" d="M148.2,31.6c-0.5,1.9-1.2,3.8-2.1,5.5c-2.7,5.1-6.2,7.6-12.2,12.4c-3.6,2.9-8.8,7.3-15.1,13.1
		c-6.3-5.8-11.5-10.2-15.1-13.1c-5.8-4.8-9.4-7.2-12.1-12.3c-0.9-1.7-1.6-3.6-2.1-5.5c-1.1-4.1-0.7-8.5,1.3-12.3
		c3.1-5.6,9.2-8.9,15.1-8.1c6.8,0.9,12.6,7.3,12.9,15.3c0.3-8,6.1-14.4,12.9-15.3c5.9-0.8,11.9,2.5,15.1,8.1
		C148.8,23.1,149.3,27.5,148.2,31.6z"/>
	<path class="st1" d="M79.8,60.3c5,1,9-0.6,9.8-3.1c0.2-0.5,0.2-1,0.1-1.5c-0.2-1.3-0.9-2.4-2.1-3c-0.6-0.4-1.3-0.6-2-0.6
		C83,52.2,80.1,55.4,79.8,60.3z"/>
	<path class="st1" d="M80.8,61.4c-1,5,0.6,9,3.1,9.8c0.5,0.2,1,0.2,1.5,0.1c1.3-0.2,2.4-0.9,3-2.1c0.4-0.6,0.6-1.3,0.6-2
		C89,64.5,85.7,61.7,80.8,61.4z"/>
	<path class="st1" d="M70.9,132.9v15.4H24.4v-14.9h46C70.6,133.3,70.7,133.1,70.9,132.9z"/>
</g>
</svg>
