<?xml version="1.0" encoding="UTF-8"?>
<svg width="90px" height="90px" viewBox="0 0 90 90" version="1.1" xmlns="http://www.w3.org/2000/svg" xmlns:xlink="http://www.w3.org/1999/xlink">
    <title>Chemical</title>
    <g id="Chemical" stroke="none" stroke-width="1" fill="none" fill-rule="evenodd" stroke-linecap="round" stroke-linejoin="round">
        <g id="icons-04-copy" transform="translate(14.000000, 9.000000)" stroke="#FFFFFF" stroke-width="1.62">
            <g id="Group">
                <path d="M36.8977952,0.254355401 L36.8977952,0.254355401 C36.8460737,0.254355401 36.7426308,0.254355401 36.6909093,0.254355401 L36.8977952,0.254355401 Z" id="Path"></path>
                <path d="M46.466267,73 L7.10622868,73 C1.57203143,73 -1.78986409,67.0989547 1.00309527,62.4188153 L16.2609288,37.3902439 L16.2609288,9.76724739 C13.6748553,9.66550523 11.657718,7.57979094 11.657718,5.03623693 C11.657718,3.71358885 12.1749327,2.54355401 13.0541977,1.67874564 C13.8817412,0.864808362 14.9678921,0.356097561 16.2092073,0.305226481 C16.2609288,0.305226481 16.3643717,0.305226481 16.4160932,0.305226481 L36.5357449,0.305226481 C36.5874663,0.305226481 36.6909093,0.305226481 36.7426308,0.305226481 C39.3287042,0.406968641 41.3458416,2.49268293 41.3458416,5.03623693 C41.3458416,6.35888502 40.8286269,7.52891986 39.9493619,8.39372822 C39.1218184,9.20766551 37.983946,9.71637631 36.7426308,9.76724739 L36.7426308,36.830662 C34.8806579,39.1198606 33.7427855,42.0195122 33.7427855,45.2243902 C33.7427855,52.6006969 39.7941975,58.5526132 47.2938106,58.5526132 C48.1730755,58.5526132 49.0523405,58.4508711 49.879884,58.2982578 L52.414236,62.4188153 C55.4140813,67.0480836 52.0004643,73 46.466267,73 Z" id="Path"></path>
                <path d="M61,45.1735192 C61,51.6850174 56.2933463,57.0773519 50.0350484,58.2473868 C49.2075049,58.4 48.3282399,58.5017422 47.448975,58.5017422 C39.9493619,58.5017422 33.8979499,52.5498258 33.8979499,45.1735192 C33.8979499,42.0195122 35.0358223,39.0689895 36.8977952,36.7797909 C39.3804257,33.7275261 43.2078145,31.7944251 47.448975,31.7944251 C54.9485881,31.8452962 61,37.8480836 61,45.1735192 Z" id="Path"></path>
                <g transform="translate(42.483714, 40.340767)" id="Path">
                    <line x1="9.93052216" y1="0" x2="0" y2="9.71637631"></line>
                    <line x1="9.93052216" y1="9.71637631" x2="0" y2="0"></line>
                </g>
                <line x1="36.8977952" y1="26.9108014" x2="16.3126503" y2="26.9108014" id="Path"></line>
            </g>
            <circle id="Oval" fill="#FF6500" fill-rule="nonzero" cx="16" cy="53" r="3"></circle>
            <circle id="Oval" fill="#FF6500" fill-rule="nonzero" cx="27" cy="62" r="3"></circle>
            <circle id="Oval" fill="#FF6500" fill-rule="nonzero" cx="25" cy="39" r="2"></circle>
        </g>
    </g>
</svg>