<?xml version="1.0" encoding="utf-8"?>
<!-- Generator: Adobe Illustrator 25.0.0, SVG Export Plug-In . SVG Version: 6.00 Build 0)  -->
<svg version="1.1" id="Layer_1" xmlns="http://www.w3.org/2000/svg" xmlns:xlink="http://www.w3.org/1999/xlink" x="0px" y="0px"
	 viewBox="0 0 159.4 159.4" style="enable-background:new 0 0 159.4 159.4;" xml:space="preserve">
<style type="text/css">
	.st0{fill:none;stroke:#FFFFFF;stroke-width:3;stroke-miterlimit:10;}
	.st1{fill:none;stroke:#FFFFFF;stroke-width:3;stroke-linecap:round;stroke-miterlimit:10;}
	.st2{fill:#FFFFFF;}
	.st3{fill:#FF6500;stroke:#FFFFFF;stroke-width:1.7;stroke-linecap:round;stroke-linejoin:round;}
	.st4{fill:none;stroke:#FFFFFF;stroke-width:1.7;stroke-miterlimit:10;}
	.st5{fill:none;stroke:#FFFFFF;stroke-width:1.7;stroke-linecap:round;stroke-miterlimit:10;}
</style>
<g>
	<path class="st0" d="M124.7,68.8v42.4c0,17.7-14.3,32-32,32h-26c-17.7,0-32-14.3-32-32V68.8H124.7z"/>
	<polyline class="st1" points="86.8,77.6 114.6,77.6 114.6,110 	"/>
	<circle class="st2" cx="80.4" cy="77.7" r="1.3"/>
	<polyline class="st0" points="100.7,142.3 100.7,152.1 58.5,152.1 58.5,142.2 	"/>
	<path class="st0" d="M105.6,41.5c0.1,6,0,21.3,0,27.3H82.3V46.4c0-3.3-1-8.1,1-10.9c0.8-1.1,1.9-1.9,2.7-3.1c1.9-3.2,2.2-7,1-10.5
		c-1.2-2.9-4.8-4.5-4.7-8c0-1.4,0.4-2.8,1.2-4c2.1-2.6,5.8-2.6,10.2-2.6c4.8,0,9.9,0.1,11.5,3.2c0.6,1.4,0.7,2.9,0.2,4.3
		c-0.7,3-2.7,3.1-4.2,5.9c-1.6,3.1-1.9,7.4,0,10.2c1,1.4,2.4,2.4,3.2,4C105.3,37,105.7,39.3,105.6,41.5z"/>
	<path class="st3" d="M65.6,50.7c0,2.7-1.5,5.2-3.9,6.4v2.1h-6.8V57c-3.4-2-4.7-6.3-2.7-9.8c2-3.4,6.3-4.7,9.8-2.7
		C64.2,45.8,65.6,48.2,65.6,50.7z"/>
	<rect x="54.9" y="59.2" class="st4" width="6.8" height="2.6"/>
	<path class="st4" d="M61.7,61.8L61.7,61.8c-0.1,2-1.7,3.4-3.6,3.3c-1.7-0.1-3.1-1.5-3.2-3.2v-0.1H61.7z"/>
	<line class="st5" x1="43.6" y1="50.4" x2="48.1" y2="50.4"/>
	<line class="st5" x1="47.9" y1="39.9" x2="51.1" y2="43.1"/>
	<line class="st5" x1="58.4" y1="35.6" x2="58.4" y2="40.1"/>
	<line class="st5" x1="69" y1="39.9" x2="65.8" y2="43.1"/>
	<line class="st5" x1="73.4" y1="50.4" x2="68.8" y2="50.4"/>
</g>
</svg>
