<?xml version="1.0" encoding="UTF-8"?>
<svg width="90px" height="90px" viewBox="0 0 90 90" version="1.1" xmlns="http://www.w3.org/2000/svg" xmlns:xlink="http://www.w3.org/1999/xlink">
    <title>jaadi</title>
    <g id="jaadi" stroke="none" stroke-width="1" fill="none" fill-rule="evenodd" stroke-linecap="round">
        <g id="icons-06-copy" transform="translate(12.000000, 8.000000)" stroke="#FFFFFF" stroke-width="1.8">
            <path d="M64,28.5 C64,29.4545455 63.6397059,30.3560606 63.0220588,30.9924242 C62.7132353,31.3106061 62.3529412,31.5757576 61.9411765,31.7348485 C61.5294118,31.8939394 61.0661765,32 60.6029412,32 L4.39705882,32 C3.93382353,32 3.47058824,31.8939394 3.05882353,31.7348485 C1.82352941,31.2045455 1,29.9848485 1,28.5 C1,27.5454545 1.36029412,26.6439394 1.97794118,26.0075758 C2.59558824,25.3712121 3.41911765,25 4.39705882,25 L60.6029412,25 C62.5073529,25.0530303 64,26.5909091 64,28.5 Z" id="Path" fill="#FF6500" fill-rule="nonzero" stroke-linejoin="round"></path>
            <path d="M59,67 C57.6120272,68.7633588 55.9670223,70.3664122 54.2192047,71.8091603 C52.4199806,73.2519084 50.1580989,74 47.8448109,74 L17.1551891,74 C14.8419011,74 12.6314258,73.2519084 10.7807953,71.8091603 C8.98157129,70.3664122 7.38797284,68.7633588 6,67 L59,67 Z" id="Path"></path>
            <path d="M60,25 L6,25 C10.6844614,17.3322434 20.9799809,12.0003596 33.0257388,12.0003596 C44.9685415,11.9495798 55.3155386,17.2814635 60,25 Z" id="Path"></path>
            <path d="M65,50.4047267 C65,56.6085672 62.7462569,62.3471196 58.9046493,67 L6.09535067,67 C2.2537431,62.3471196 0,56.6085672 0,50.4047267 C0,46.6307238 0.819542947,43.0635155 2.30496454,39.8064993 C2.86840032,38.5657312 3.07328605,37.2215657 3.02206462,35.8774003 C3.02206462,35.5155096 2.97084318,35.2053176 2.97084318,34.8434269 C2.97084318,33.8611521 3.07328605,32.9305761 3.22695035,32 C3.63672183,32.155096 4.0464933,32.2584934 4.55870764,32.2584934 L60.4925138,32.2584934 C60.9535067,32.2584934 61.4144996,32.155096 61.8242711,32 C61.9779354,32.9305761 62.0803783,33.8611521 62.0803783,34.8434269 C62.0803783,35.2053176 62.0803783,35.5155096 62.0291568,35.8774003 C61.9267139,37.2215657 62.1828211,38.5657312 62.7462569,39.8064993 C64.1804571,43.1152142 65,46.6824225 65,50.4047267 Z" id="Path"></path>
            <circle id="Oval" cx="33" cy="6" r="6"></circle>
        </g>
    </g>
</svg>