<?xml version="1.0" encoding="UTF-8"?>
<svg width="90px" height="90px" viewBox="0 0 90 90" version="1.1" xmlns="http://www.w3.org/2000/svg" xmlns:xlink="http://www.w3.org/1999/xlink">
    <title>Moms</title>
    <g id="Moms" stroke="none" stroke-width="1" fill="none" fill-rule="evenodd" stroke-linecap="round" stroke-linejoin="round">
        <g id="icons-01-copy" transform="translate(8.000000, 7.000000)" stroke="#FFFFFF" stroke-width="1.62">
            <path d="M59.8909091,9.32190343 C56.7272727,9.32190343 53.8363636,10.2918125 51.4363636,11.9622113 C51.4363636,11.9083275 51.4363636,11.9083275 51.4363636,11.8544437 C51.3818182,11.6927922 51.3818182,11.4772568 51.3272727,11.3156053 C51.2727273,11.1539538 51.2727273,11.0461861 51.2181818,10.8845346 C51.2181818,10.8306508 51.1636364,10.7228831 51.1636364,10.6689993 C51.1636364,10.6151155 51.1090909,10.5612316 51.1090909,10.453464 C51.0545455,10.3456963 51.0545455,10.1840448 51,10.0762771 C51,10.0223933 50.9454545,9.96850945 50.9454545,9.91462561 C50.8909091,9.69909027 50.8363636,9.53743877 50.7818182,9.37578726 C50.7272727,9.26801959 50.6727273,9.10636809 50.6181818,8.99860042 C50.6181818,8.94471659 50.5636364,8.89083275 50.5636364,8.83694892 C50.5090909,8.67529741 50.4545455,8.56752974 50.4,8.40587824 C50.4,8.3519944 50.3454545,8.3519944 50.3454545,8.29811057 C50.2909091,8.13645906 50.1818182,7.97480756 50.1272727,7.81315605 C50.1272727,7.75927222 50.0727273,7.70538838 50.0727273,7.65150455 C50.0181818,7.54373688 49.9636364,7.38208537 49.8545455,7.2743177 C49.6909091,6.9510147 49.5272727,6.68159552 49.3090909,6.35829251 C49.2545455,6.30440868 49.2,6.25052484 49.2,6.14275717 C48.9818182,5.873338 48.8181818,5.55003499 48.6,5.28061582 C48.5454545,5.17284815 48.4363636,5.06508048 48.3818182,5.01119664 C47.4,3.82575227 46.2,2.80195941 44.8909091,1.99370189 C44.6727273,1.88593422 44.5090909,1.77816655 44.2909091,1.67039888 C44.0727273,1.56263121 43.9090909,1.45486354 43.6909091,1.34709587 C42.8727273,0.969909027 42.0545455,0.646606018 41.1818182,0.377186844 C41.0727273,0.323303009 40.9636364,0.323303009 40.8545455,0.323303009 C40.6909091,0.377186844 40.5818182,0.377186844 40.5272727,0.323303009 C40.4181818,0.269419174 40.3090909,0.269419174 40.2545455,0.269419174 C40.0363636,0.215535339 39.8181818,0.215535339 39.6,0.161651505 C39.4363636,0.161651505 39.3272727,0.10776767 39.1636364,0.10776767 C38.8909091,0.0538838348 38.6181818,0.0538838348 38.3454545,0.0538838348 C38.2909091,0.0538838348 38.1818182,0.0538838348 38.1272727,0.0538838348 C37.9090909,0.0538838348 37.6909091,0.0538838348 37.4727273,0.0538838348 C37.2545455,0.0538838348 37.0363636,0.0538838348 36.8181818,0.0538838348 C36.7636364,0.0538838348 36.6545455,0.0538838348 36.6,0.0538838348 C36.4363636,0.0538838348 36.3272727,0.0538838348 36.1636364,0.10776767 C36,0.10776767 35.8909091,0.161651505 35.7272727,0.161651505 C35.4,0.215535339 35.0181818,0.269419174 34.6909091,0.323303009 C34.5818182,0.323303009 34.5272727,0.377186844 34.4181818,0.377186844 C34.3090909,0.377186844 34.2545455,0.431070679 34.1454545,0.431070679 C34.0363636,0.484954514 33.8727273,0.484954514 33.7090909,0.538838348 C33.4909091,0.592722183 33.3272727,0.646606018 33.1090909,0.700489853 C32.9454545,0.754373688 32.7818182,0.808257523 32.6181818,0.862141358 C32.4545455,0.916025192 32.2909091,0.969909027 32.1272727,1.0776767 C31.9636364,1.13156053 31.8545455,1.18544437 31.6909091,1.2393282 C31.6363636,1.29321204 31.5272727,1.29321204 31.4727273,1.34709587 C31.3636364,1.40097971 31.2545455,1.45486354 31.1454545,1.50874738 C30.6545455,1.77816655 30.1636364,2.04758572 29.6727273,2.37088873 C29.5090909,2.4786564 29.3454545,2.58642407 29.2363636,2.69419174 C28.9636364,2.90972708 28.6363636,3.12526242 28.3636364,3.34079776 C28.2545455,3.3946816 28.2,3.50244927 28.0909091,3.61021693 C28.0909091,3.61021693 28.0363636,3.61021693 28.0363636,3.66410077 C27.9272727,3.7179846 27.8727273,3.82575227 27.8181818,3.87963611 C27.8181818,3.87963611 27.8181818,3.87963611 27.8181818,3.87963611 C27.7090909,3.98740378 27.5454545,4.14905528 27.4363636,4.25682295 C27.1636364,4.52624213 26.8909091,4.84954514 26.6181818,5.17284815 C26.5090909,5.28061582 26.4545455,5.38838348 26.4,5.44226732 C26.2909091,5.55003499 26.1818182,5.71168649 26.1272727,5.81945416 C26.0181818,5.98110567 25.9090909,6.14275717 25.7454545,6.30440868 C25.5818182,6.51994402 25.4727273,6.73547936 25.3636364,6.9510147 C25.2545455,7.1126662 25.2,7.22043387 25.0909091,7.38208537 C25.0909091,7.38208537 25.0909091,7.43596921 25.0363636,7.43596921 C24.9818182,7.48985304 24.9272727,7.59762071 24.9272727,7.65150455 C24.8181818,7.81315605 24.7636364,7.97480756 24.7090909,8.13645906 C24.6545455,8.24422673 24.6545455,8.29811057 24.6,8.40587824 C24.3818182,8.89083275 24.1636364,9.4296711 24,9.96850945 C23.9454545,10.0762771 23.8909091,10.2379286 23.8909091,10.3456963 C23.8363636,10.453464 23.8363636,10.6151155 23.7818182,10.776767 C23.7272727,10.8845346 23.7272727,10.9923023 23.7272727,11.10007 C23.6727273,11.423373 23.6181818,11.6927922 23.5636364,12.0160952 C21.1636364,10.3456963 18.2727273,9.37578726 15.1090909,9.37578726 C6.76363636,9.37578726 0,16.2190343 0,24.6787964 C0,32.4380686 5.72727273,38.8502449 13.0909091,39.8740378 L13.0909091,39.8740378 L15.4909091,66.9237229 L16.3636364,77 L59.0727273,77 L61.6909091,39.9279216 C69.2181818,39.0118964 75,32.5458362 75,24.7326802 C75,16.2190343 68.2363636,9.32190343 59.8909091,9.32190343 Z M50.7818182,66.869839 C50.5636364,69.0790763 48.6545455,70.7494752 46.3636364,70.7494752 C44.3454545,70.7494752 39.2181818,68.0013996 37.7454545,66.869839 C37.6363636,66.7620714 37.5272727,66.7081875 37.4727273,66.6004199 C37.4181818,66.6543037 37.3090909,66.7620714 37.2,66.869839 C35.7272727,68.0552834 30.6,70.7494752 28.5818182,70.7494752 C26.2909091,70.7494752 24.4363636,69.0251924 24.1636364,66.869839 C24.1636364,66.7081875 24.1090909,66.546536 24.1090909,66.3848845 C24.1090909,63.960112 26.0727273,62.0202939 28.5272727,62.0202939 C30.9272727,62.0202939 35.6727273,64.606718 37.4727273,66.3310007 C39.2727273,64.606718 43.9636364,62.0202939 46.3636364,62.0202939 C48.8181818,62.0202939 50.7818182,63.960112 50.7818182,66.3848845 C50.7818182,66.6004199 50.7818182,66.7620714 50.7818182,66.869839 Z M37.5272727,66.4387684 C37.4727273,66.3848845 37.4727273,66.3848845 37.4181818,66.3310007 C37.3636364,66.3848845 37.3636364,66.3848845 37.3090909,66.4387684 C37.2545455,66.4926522 37.3090909,66.546536 37.4181818,66.6543037 C37.5818182,66.546536 37.5818182,66.4387684 37.5272727,66.4387684 Z" id="Shape"></path>
            <line x1="59.6727273" y1="66.869839" x2="50.7818182" y2="66.869839" id="Path"></line>
            <polyline id="Path" points="15.2727273 66.869839 15.4363636 66.869839 24.1636364 66.869839"></polyline>
            <polyline id="Path" points="37.2 66.869839 37.4181818 66.869839 37.5272727 66.869839 37.7454545 66.869839"></polyline>
            <path d="M24.4363636,19.9909027 C23.7272727,18.26662 23.2909091,16.326802 23.2909091,14.3331001 C23.2909091,6.41217635 29.6181818,0 37.4727273,0 C45.3272727,0 51.6545455,6.41217635 51.6545455,14.3331001 C51.6545455,16.4345696 51.2181818,18.3743877 50.4545455,20.1525542" id="Path"></path>
            <path d="M37.6909091,55.1231631 C37.4727273,55.2309307 37.3090909,55.1231631 37.0909091,54.9615115 C36.7090909,54.7459762 36.3272727,54.5304409 35.9454545,54.3149055 C33.2181818,52.7522743 30.6,51.0279916 28.2545455,48.9804059 C25.4181818,46.5556333 22.8,43.5920224 21.7090909,39.9818055 C21.1636364,38.2036389 21.0545455,36.3177047 21.3818182,34.4856543 C21.7636364,32.5997201 22.5272727,30.6060182 23.8909091,29.1511547 C26.8909091,25.9720084 31.7454545,26.9419174 35.2909091,28.6123163 C36,28.9356193 37.0363636,29.7977607 37.8,29.689993 C38.7818182,29.5822253 40.2545455,28.3428971 41.2363636,27.9657103 C43.5272727,27.1035689 46.1454545,26.6186144 48.5454545,27.4268719 C52.2545455,28.6662001 54,33.0846746 53.9454545,36.6948915 C53.9454545,40.5206438 51.8181818,43.9153254 49.3090909,46.663401 C46.9090909,49.2498251 44.0727273,51.3512946 41.0727273,53.183345 C40.1454545,53.7760672 39.1636364,54.3149055 38.1818182,54.8537439 C37.9636364,54.9615115 37.8545455,55.0153954 37.6909091,55.1231631 Z" id="Path"></path>
            <polyline id="Path" points="31.9090909 45.4240728 31.9090909 33.946816 37.2545455 38.9580126 42.5454545 33.946816 42.5454545 45.4779566"></polyline>
            <path d="M37.4727273,66.6543037 C37.4181818,66.7081875 37.3090909,66.8159552 37.2,66.9237229 C35.7272727,68.1091672 30.6,70.803359 28.5818182,70.803359 C26.2909091,70.803359 24.4363636,69.0790763 24.1636364,66.9237229 C24.1636364,66.7620714 24.1090909,66.6004199 24.1090909,66.4387684 C24.1090909,64.0139958 26.0727273,62.0741777 28.5272727,62.0741777 C30.9272727,62.0741777 35.6727273,64.6606018 37.4727273,66.3848845 C37.4181818,66.4387684 37.4181818,66.4387684 37.3636364,66.4926522 C37.3090909,66.4387684 37.3636364,66.546536 37.4727273,66.6543037 Z" id="Path" fill="#FF6500" fill-rule="nonzero"></path>
            <path d="M37.4727273,66.6543037 C37.3636364,66.546536 37.3636364,66.4926522 37.3636364,66.4387684 C37.4181818,66.3848845 37.4181818,66.3848845 37.4727273,66.3310007 C37.5272727,66.3848845 37.5272727,66.3848845 37.5818182,66.4387684 C37.5818182,66.4387684 37.5818182,66.546536 37.4727273,66.6543037 Z" id="Path"></path>
            <path d="M50.7818182,66.4387684 C50.7818182,66.6004199 50.7818182,66.7620714 50.7272727,66.9237229 C50.5090909,69.1329601 48.6,70.803359 46.3090909,70.803359 C44.2909091,70.803359 39.1636364,68.0552834 37.6909091,66.9237229 C37.5818182,66.8159552 37.4727273,66.7620714 37.4181818,66.6543037 C37.5272727,66.546536 37.5272727,66.4926522 37.5272727,66.4387684 C37.4727273,66.3848845 37.4727273,66.3848845 37.4181818,66.3310007 C39.2181818,64.606718 43.9090909,62.0202939 46.3090909,62.0202939 C48.8181818,62.0741777 50.7818182,64.0139958 50.7818182,66.4387684 Z" id="Path" fill="#FF6500" fill-rule="nonzero"></path>
            <path d="M37.4727273,66.6543037 C37.3636364,66.546536 37.3636364,66.4926522 37.3636364,66.4387684 C37.4181818,66.3848845 37.4181818,66.3848845 37.4727273,66.3310007 C37.5272727,66.3848845 37.5272727,66.3848845 37.5818182,66.4387684 C37.5818182,66.4387684 37.5818182,66.546536 37.4727273,66.6543037 Z" id="Path"></path>
            <path d="M29.7818182,74.5213436 C29.7818182,74.5213436 35.7818182,71.6655003 37.4727273,66.7081875 C37.4727273,66.7081875 38.2909091,70.9650105 44.6181818,74.5752274" id="Path"></path>
        </g>
    </g>
</svg>